<svg width="509" height="449" viewBox="0 0 509 449" fill="none" xmlns="http://www.w3.org/2000/svg">
<g opacity="0.17" filter="url(#filter0_d_2_6412)">
<path d="M-26.9384 -37.2514C-177.12 -52.7151 -199.67 74.7587 -192.029 141.028C-172.623 246.857 -60.0537 310.736 -15.3835 333.327C20.3526 351.401 98.081 425.317 132.478 460.016C268.558 543.324 315.067 386.976 324.422 359.649C333.776 332.322 340.685 234.645 396.034 160.521C440.313 101.221 462.187 36.9602 467.589 12.242C478.998 -98.7515 423.026 -118.137 398.614 -126.165C374.202 -134.193 319.598 -130.57 226.956 -55.2816C152.842 4.94914 26.9075 -17.7654 -26.9384 -37.2514Z" fill="white"/>
</g>
<defs>
<filter id="filter0_d_2_6412" x="-232.326" y="-164.133" width="740.43" height="691.346" filterUnits="userSpaceOnUse" color-interpolation-filters="sRGB">
<feFlood flood-opacity="0" result="BackgroundImageFix"/>
<feColorMatrix in="SourceAlpha" type="matrix" values="0 0 0 0 0 0 0 0 0 0 0 0 0 0 0 0 0 0 127 0" result="hardAlpha"/>
<feOffset dy="4"/>
<feGaussianBlur stdDeviation="19.5"/>
<feComposite in2="hardAlpha" operator="out"/>
<feColorMatrix type="matrix" values="0 0 0 0 0.52549 0 0 0 0 0.733333 0 0 0 0 0.945098 0 0 0 1 0"/>
<feBlend mode="normal" in2="BackgroundImageFix" result="effect1_dropShadow_2_6412"/>
<feBlend mode="normal" in="SourceGraphic" in2="effect1_dropShadow_2_6412" result="shape"/>
</filter>
</defs>
</svg>
